<svg width="856" height="677" viewBox="0 0 856 677" fill="none" xmlns="http://www.w3.org/2000/svg">
<g clip-path="url(#clip0)">
<path d="M597.316 584.853H595.316V366.006C595.317 365.114 595.119 364.234 594.736 363.428C594.354 362.623 593.796 361.914 593.103 361.352L594.367 359.802C595.29 360.55 596.034 361.496 596.544 362.57C597.054 363.643 597.318 364.817 597.316 366.006V584.853Z" fill="#3F3D56"/>
<path d="M393.58 23.2328C394.097 24.4135 394.483 25.6477 394.73 26.9129C394.17 24.9829 393.73 23.6728 393.58 23.2328Z" fill="#3F3D56"/>
<path d="M411.32 84.3728C411.32 84.3728 411.32 85.7528 409.83 90.7328L411.32 84.3728Z" fill="#3F3D56"/>
<path d="M593.91 292.683C554.58 313.183 503.13 330.883 487.72 336.013C499.47 332.953 533.67 328.833 586.66 361.893C653.24 403.423 724.43 375.733 724.43 375.733C724.43 375.733 708.61 406.063 674.99 408.033C641.37 410.013 553.7 354.643 524.04 370.463C494.37 386.283 480.53 366.503 468.66 406.063C456.8 445.613 435.05 553.713 460.1 614.363L485.14 675.003H342.76C342.76 675.003 394.18 537.893 365.83 453.523C349.96 406.273 327.68 372.053 319.37 354.663C315.2 345.953 314.54 341.473 319.94 341.693C323.01 341.823 328.04 343.473 335.51 346.733C335.51 346.733 301.23 313.113 290.03 313.113C278.82 313.113 226.08 307.843 208.95 290.043C208.95 290.043 184.56 272.903 141.05 315.093C97.5399 357.283 108.09 357.283 69.2 353.983C30.92 350.733 0.929939 332.163 -6.10352e-05 331.583C1.10994 332.033 45.8199 349.903 73.1499 340.803C100.84 331.573 124.57 296.633 148.96 284.773C173.35 272.903 187.85 257.083 220.81 274.223L199.09 223.013L193.14 208.983L193.13 208.963C193.13 208.963 185.87 112.723 172.03 106.133C158.19 99.5328 166.76 82.4028 141.05 79.1028C141.05 79.1028 172.69 75.1428 178.62 96.9028C184.56 118.653 225.43 235.993 225.43 235.993C225.43 235.993 250.47 286.083 278.16 274.223C305.85 262.353 267.61 195.783 267.61 195.783L220.15 174.023C220.15 174.023 255.75 172.703 277.5 193.143C299.25 213.573 300.57 279.493 300.57 279.493C300.57 279.493 355.28 287.403 368.47 317.073C368.47 317.073 377.04 290.703 360.56 274.883C356.44 270.923 352.11 264.043 347.94 255.953C332.133 224.902 326.42 189.689 331.6 155.233C334.05 138.373 335.56 121.883 332.87 117.993C326.94 109.423 301.89 56.6928 299.91 42.8428C297.94 29.0028 301.89 0.00283813 301.89 0.00283813C301.89 0.00283813 302.55 35.5928 310.46 46.8028C318.37 58.0128 340.78 113.383 340.78 113.383C340.78 113.383 340.78 183.253 359.24 217.533C377.7 251.813 413.29 290.043 411.32 315.093V329.593C411.32 329.593 450.87 292.023 448.23 279.493C445.59 266.973 442.3 237.303 417.25 219.513C392.2 201.713 375.72 173.363 393.52 132.493C403.53 109.503 407.91 97.1528 409.83 90.7428L399.45 135.133C399.45 135.133 392.86 180.613 411.32 196.433C411.37 196.473 411.41 196.513 411.46 196.553C429.89 212.393 454.16 241.263 454.16 241.263L454.09 239.993L448.89 146.343L450.03 148.843L458.25 166.863L466.03 183.913C466.03 183.913 502.94 136.453 546.45 120.633C589.95 104.813 616.98 49.4428 616.98 49.4428L653.9 20.4328L623.57 56.6928C623.57 56.6928 614.34 99.5328 562.27 129.863C510.19 160.183 476.58 205.003 474.6 232.693C472.62 260.383 470.64 284.773 470.64 284.773C470.64 284.773 568.2 281.473 589.95 238.623C611.71 195.783 629.51 193.803 629.51 193.803L616.98 230.713L603.14 262.353C603.14 262.353 659.83 263.673 689.49 297.293C719.16 330.913 792.98 340.803 792.98 340.803L751.46 352.003C751.46 352.003 711.9 338.823 674.33 314.433C636.76 290.043 640.71 268.293 593.91 292.683Z" fill="#3F3D56"/>
<path opacity="0.1" d="M614.93 202.743C610.76 221.203 605.85 239.033 598.95 252.623C577.2 295.473 479.64 298.773 479.64 298.773C479.64 298.773 480.1 293.113 480.8 284.183C505.57 282.143 573.28 273.433 590.95 238.623C592.57 235.443 594.07 232.023 595.49 228.423L614.93 202.743Z" fill="black"/>
<path opacity="0.1" d="M463.16 255.263C463.16 255.263 438.77 226.253 420.32 210.433C416.27 206.973 413.43 202.073 411.46 196.553C411.3 196.113 411.15 195.663 411 195.213C411.43 195.633 411.86 196.043 412.32 196.433C428.47 210.283 449.18 234.243 454.09 239.993C454.78 240.813 455.16 241.263 455.16 241.263L450.03 148.843L458.25 166.863L463.16 255.263Z" fill="black"/>
<path opacity="0.1" d="M477.279 172.03C477.135 188.26 475.028 197.913 475.028 197.913C475.028 197.913 511.927 150.472 555.421 134.641C557.992 133.015 560.6 131.414 563.269 129.86C615.345 99.537 624.573 56.6899 624.573 56.6899L654.896 20.4348L617.982 49.4389C617.982 49.4389 590.955 104.81 547.449 120.631C517.793 131.415 491.205 156.896 477.279 172.03Z" fill="black"/>
<path opacity="0.1" d="M420.316 329.091V343.593C420.316 343.593 459.867 306.019 457.23 293.495C455.214 283.916 452.799 264.318 440.577 247.665C446.086 260.25 447.763 272.526 449.23 279.495C451.121 288.476 431.319 310.337 419.962 321.988C420.361 324.333 420.479 326.717 420.316 329.091V329.091Z" fill="black"/>
<path opacity="0.1" d="M367.262 229.57C367.575 230.238 367.898 230.895 368.24 231.531C378.348 250.304 393.588 270.259 404.99 288.589C395.775 270.437 379.738 249.679 367.262 229.57Z" fill="black"/>
<path opacity="0.1" d="M587.659 361.893C565.975 348.367 547.44 341.068 532.299 337.37C516.417 343.348 503.345 347.805 496.768 349.993C508.564 346.94 542.74 342.884 595.659 375.893C637.179 401.792 680.492 400.771 707.215 396.334C714.605 390.758 720.799 383.753 725.429 375.736C725.429 375.736 654.237 403.421 587.659 361.893Z" fill="black"/>
<path opacity="0.1" d="M399.398 201.506C394.083 188.482 393.207 172.983 399.314 154.823C399.237 148.241 399.617 141.662 400.45 135.133L410.83 90.7318C408.916 97.1349 404.538 109.488 394.518 132.496C381.833 161.625 386.567 184.386 399.398 201.506Z" fill="black"/>
<path opacity="0.1" d="M690.492 297.293C669.92 273.978 636.356 266.2 617.71 263.621L612.139 276.356C612.139 276.356 668.829 277.674 698.492 311.293C714.942 329.936 744.969 341.278 768.46 347.686L793.984 340.799C793.984 340.799 720.155 330.911 690.492 297.293Z" fill="black"/>
<path opacity="0.1" d="M287.16 288.221C314.846 276.356 276.613 209.778 276.613 209.778L275.567 209.299C285.099 229.409 298.923 265.751 279.16 274.221C260.668 282.146 243.354 262.429 233.893 248.459C234.237 249.447 234.426 249.988 234.426 249.988C234.426 249.988 259.474 300.086 287.16 288.221Z" fill="black"/>
<path opacity="0.1" d="M377.469 331.068C377.469 331.068 385.811 305.353 370.139 289.477C373.982 303.154 369.469 317.068 369.469 317.068C359.27 294.121 324.226 284.194 308.877 280.874C309.472 288.514 309.573 293.495 309.573 293.495C309.573 293.495 364.285 301.405 377.469 331.068Z" fill="black"/>
<path opacity="0.1" d="M410.83 90.7318C412.315 85.7614 412.316 84.3758 412.316 84.3758L410.83 90.7318Z" fill="black"/>
<path opacity="0.1" d="M81.7536 354.925C81.8866 354.882 82.0216 354.843 82.1536 354.799C109.839 345.57 133.57 310.633 157.96 298.768C182.35 286.903 196.852 271.082 229.811 288.221C229.811 288.221 224.045 264.619 212.871 249.112C216.572 257.207 219.563 265.609 221.811 274.221C188.852 257.082 174.35 272.903 149.96 284.768C125.57 296.634 101.839 331.57 74.1536 340.799C46.4679 350.028 0.98407 331.57 0.98407 331.57C0.98407 331.57 31.3066 350.687 70.1985 353.983C74.6475 354.36 78.4437 354.692 81.7536 354.925Z" fill="black"/>
<path opacity="0.1" d="M202.13 222.963C202.13 222.963 201.05 222.983 199.09 223.013L193.14 208.983C193.79 208.973 194.13 208.963 194.13 208.963C194.13 208.963 189.55 148.263 180.73 119.973C180.84 120.023 180.93 120.083 181.03 120.133C194.87 126.723 202.13 222.963 202.13 222.963Z" fill="black"/>
<path opacity="0.1" d="M356.576 675.006C368.654 637.98 397.701 535.595 374.832 467.52C364.956 438.121 355.802 419.374 348.063 407.414C353.85 418.736 360.178 433.711 366.832 453.52C395.177 537.895 343.76 675.006 343.76 675.006H356.576Z" fill="black"/>
<path opacity="0.1" d="M344.51 360.733C336.556 357.235 328.043 355.18 319.37 354.663C315.2 345.953 314.54 341.473 319.94 341.693C321.44 341.963 322.95 342.283 324.45 342.653C335.05 351.453 344.51 360.733 344.51 360.733Z" fill="black"/>
<path opacity="0.1" d="M166.055 99.7296C166.807 100.996 167.718 102.16 168.766 103.195C167.996 101.941 167.087 100.779 166.055 99.7296V99.7296Z" fill="black"/>
<path opacity="0.1" d="M286.501 207.141C287.52 208.105 288.475 209.134 289.359 210.222C286.471 203.281 282.905 197.279 278.501 193.141C256.748 172.707 221.152 174.025 221.152 174.025L265.793 194.485C273.442 197.339 280.473 201.636 286.501 207.141Z" fill="black"/>
<path opacity="0.1" d="M333.873 117.994C336.563 121.88 335.051 138.37 332.596 155.235C327.418 189.69 333.132 224.901 348.941 255.949C351.041 260.104 353.387 264.13 355.965 268.007C340.9 237.417 335.537 202.956 340.596 169.235C343.051 152.37 344.563 135.88 341.873 131.994C335.94 123.425 310.891 70.6899 308.913 56.847C308.321 51.4766 308.182 46.0658 308.5 40.6721C303.38 26.1436 302.891 0 302.891 0C302.891 0 298.936 29.0042 300.913 42.847C302.891 56.6898 327.94 109.425 333.873 117.994Z" fill="black"/>
<path opacity="0.1" d="M395.714 26.8642C395.45 25.5614 395.049 24.2901 394.518 23.0715C394.518 23.0715 395.024 24.4942 395.714 26.8642Z" fill="black"/>
<path opacity="0.1" d="M162.887 93.2529C168.697 93.964 175.38 95.7465 180.477 99.8804C180.144 98.7557 179.854 97.7475 179.623 96.9004C173.691 75.1473 142.05 79.1024 142.05 79.1024C156.349 80.9355 160.042 87.0514 162.887 93.2529Z" fill="black"/>
<path d="M784.514 641.138C774.683 656.214 777.377 675.389 777.377 675.389C777.377 675.389 796.01 670.121 805.841 655.044C815.672 639.968 812.978 620.793 812.978 620.793C812.978 620.793 794.345 626.062 784.514 641.138Z" fill="#3F3D56"/>
<path d="M791.899 643.803C791.122 661.785 777.774 675.812 777.774 675.812C777.774 675.812 765.686 660.686 766.463 642.704C767.24 624.722 780.588 610.695 780.588 610.695C780.588 610.695 792.676 625.822 791.899 643.803Z" fill="#3182CE"/>
<path d="M618.746 530.01C618.746 530.01 630.058 518.143 634.687 520.531C639.317 522.918 621.375 533.53 621.375 533.53L618.746 530.01Z" fill="#FFB9B9"/>
<path opacity="0.1" d="M618.746 530.01C618.746 530.01 630.058 518.143 634.687 520.531C639.317 522.918 621.375 533.53 621.375 533.53L618.746 530.01Z" fill="black"/>
<path d="M584.232 504.109C584.232 504.109 580.074 511.562 581.162 519.597C582.25 527.632 592.201 553.415 595.584 552.956C598.967 552.498 624.027 534.032 624.027 534.032L619.248 527.359L600.941 538.451C600.941 538.451 598.152 498.779 584.232 504.109Z" fill="#D0CDE1"/>
<path d="M652.114 522.253L623.574 537.93C623.409 538.04 623.221 538.112 623.025 538.142C622.829 538.171 622.628 538.157 622.438 538.101C622.247 538.045 622.071 537.948 621.922 537.816C621.773 537.685 621.655 537.522 621.576 537.34L614.585 522.727C614.452 522.31 614.474 521.86 614.645 521.458C614.817 521.056 615.127 520.729 615.52 520.536L639.215 508.323C639.506 508.147 639.853 508.086 640.187 508.149C640.522 508.213 640.821 508.398 641.027 508.669L652.863 519.82C652.98 520.028 653.053 520.257 653.078 520.494C653.103 520.73 653.08 520.97 653.01 521.197C652.94 521.425 652.824 521.636 652.67 521.817C652.516 521.999 652.327 522.147 652.114 522.253V522.253Z" fill="#2F2E41"/>
<path d="M650.209 520.094L623.454 535.387L616.334 522.555L639.286 510.073L650.209 520.094Z" fill="#3182CE"/>
<path d="M627.761 515.674C627.9 515.507 627.898 515.276 627.755 515.157C627.613 515.038 627.385 515.077 627.245 515.244C627.106 515.411 627.108 515.643 627.251 515.762C627.393 515.88 627.622 515.841 627.761 515.674Z" fill="#F2F2F2"/>
<path d="M637.609 528.731C637.702 528.62 637.7 528.465 637.605 528.386C637.51 528.307 637.358 528.333 637.265 528.444C637.172 528.556 637.174 528.71 637.269 528.789C637.364 528.869 637.516 528.842 637.609 528.731Z" fill="#F2F2F2"/>
<path opacity="0.1" d="M584.232 504.109C584.232 504.109 580.074 511.562 581.162 519.597C582.25 527.632 592.201 553.415 595.584 552.956C598.967 552.498 624.027 534.032 624.027 534.032L619.248 527.359L600.941 538.451C600.941 538.451 598.152 498.779 584.232 504.109Z" fill="black"/>
<path d="M611.098 532.278C611.098 532.278 623.9 522.036 628.168 525.023C632.435 528.011 613.232 536.119 613.232 536.119L611.098 532.278Z" fill="#FFB9B9"/>
<path d="M594.028 491.311C600.863 491.311 606.404 485.77 606.404 478.935C606.404 472.1 600.863 466.559 594.028 466.559C587.193 466.559 581.653 472.1 581.653 478.935C581.653 485.77 587.193 491.311 594.028 491.311Z" fill="#FFB9B9"/>
<path d="M636.703 565.137C636.703 565.137 649.932 566.844 649.505 574.952C649.078 583.061 639.263 616.773 639.263 616.773L638.41 630.002C638.41 630.002 639.263 652.193 636.703 651.766C634.142 651.34 628.168 635.977 628.168 635.977C628.168 635.977 620.913 631.283 624.327 627.015C627.741 622.748 630.301 623.174 629.448 618.48C628.594 613.786 629.021 594.156 631.582 588.181C634.142 582.207 635.634 578.912 635.634 578.912L627.314 578.366L636.703 565.137Z" fill="#FFB9B9"/>
<path opacity="0.1" d="M636.703 565.137C636.703 565.137 649.932 566.844 649.505 574.952C649.078 583.061 639.263 616.773 639.263 616.773L638.41 630.002C638.41 630.002 639.263 652.193 636.703 651.766C634.142 651.34 628.168 635.977 628.168 635.977C628.168 635.977 620.913 631.283 624.327 627.015C627.741 622.748 630.301 623.174 629.448 618.48C628.594 613.786 629.021 594.156 631.582 588.181C634.142 582.207 635.634 578.912 635.634 578.912L627.314 578.366L636.703 565.137Z" fill="black"/>
<path d="M637.556 567.271C637.556 567.271 650.358 570.258 651.639 578.793C652.919 587.328 659.32 612.506 659.32 612.506L666.148 628.295C666.148 628.295 676.816 647.499 672.122 647.072C667.428 646.645 661.027 637.257 658.893 637.257C656.76 637.257 650.358 634.697 650.785 632.99C651.212 631.283 654.199 626.162 654.199 626.162L643.875 608.177C641.881 604.705 640.374 600.976 639.396 597.094C638.336 592.882 637.129 587.722 637.129 586.048C637.129 583.061 628.594 581.78 628.594 581.78L637.556 567.271Z" fill="#FFB9B9"/>
<path d="M595.735 539.959L601.71 557.029C601.71 557.029 611.098 559.59 617.926 561.723C624.754 563.857 637.556 560.87 638.836 565.991C640.117 571.112 636.276 580.073 632.435 582.207C628.594 584.341 626.461 586.474 614.085 583.06C601.71 579.647 572.264 578.793 572.264 578.793C569.41 580.506 566.195 581.529 562.876 581.78C557.328 582.207 556.048 582.634 554.341 581.354C552.634 580.073 555.194 580.073 556.048 576.659C556.901 573.245 557.328 574.526 561.169 570.685C565.01 566.844 567.997 555.322 570.131 551.481C572.264 547.641 573.545 539.959 573.545 539.959H595.735Z" fill="#2F2E41"/>
<path d="M594.882 489.177C593.331 490.309 592.063 491.784 591.175 493.486C590.287 495.189 589.803 497.072 589.761 498.992C589.761 505.393 576.958 492.164 576.958 492.164C576.958 492.164 583.786 483.629 583.786 481.069C583.786 478.508 594.882 489.177 594.882 489.177Z" fill="#FFB9B9"/>
<path d="M578.665 486.616C578.665 486.616 586.347 489.604 588.054 493.871C589.761 498.138 596.162 507.1 596.162 507.1C596.162 507.1 605.123 516.488 602.136 526.73C599.149 536.972 596.589 539.533 596.589 541.24C596.589 542.947 592.321 545.934 588.907 545.507C585.493 545.08 572.691 543.373 571.837 541.666C570.984 539.959 565.863 515.635 569.277 506.673C572.046 499.825 575.18 493.13 578.665 486.616V486.616Z" fill="#D0CDE1"/>
<path d="M597.618 479.498C600.387 480.155 603.105 478.391 605.374 476.641C606.662 475.648 608.081 474.231 607.686 472.633C607.336 471.214 605.665 470.41 605.421 468.969C605.252 467.967 605.838 466.993 605.885 465.977C605.843 465.203 605.589 464.456 605.151 463.817C604.713 463.178 604.108 462.671 603.401 462.353C602.052 461.627 600.521 461.324 599.135 460.674C597.019 459.681 595.259 457.891 592.999 457.317C589.91 456.534 586.766 458.202 583.59 458.418C581.669 458.548 579.723 458.143 577.822 458.458C576.009 458.825 574.372 459.791 573.176 461.201C571.979 462.611 571.292 464.383 571.225 466.232C571.2 467.59 571.472 469.105 570.661 470.182C570.341 470.553 569.976 470.884 569.575 471.166C566.752 473.449 565.47 477.264 565.324 480.939C565.252 482.748 565.631 484.897 567.236 485.666C568.096 485.96 569.004 486.087 569.911 486.038C570.367 486.019 570.821 486.111 571.233 486.308C571.644 486.505 572.002 486.799 572.273 487.166C573.004 488.455 571.909 490.36 572.865 491.485C573.584 492.331 574.985 492.05 575.824 491.33C576.662 490.609 577.186 489.573 577.981 488.803C579.528 487.305 581.822 487.033 583.942 486.806C584.571 486.801 585.182 486.6 585.691 486.232C586.076 485.828 586.327 485.314 586.408 484.762C586.687 483.49 586.691 482.174 586.419 480.901C586.284 480.507 586.267 480.082 586.37 479.679C586.51 479.392 586.727 479.149 586.996 478.978C588.31 477.99 590.612 476.553 592.32 476.825C594.215 477.127 595.706 479.044 597.618 479.498Z" fill="#2F2E41"/>
<path d="M580.372 501.979C580.372 501.979 575.251 508.807 575.251 516.915C575.251 525.023 581.653 551.908 585.067 551.908C588.48 551.908 615.792 536.972 615.792 536.972L611.951 529.717L592.321 538.252C592.321 538.252 594.882 498.565 580.372 501.979Z" fill="#D0CDE1"/>
<path d="M638.316 579.006H540.316V598.006H638.316V579.006Z" fill="#3182CE"/>
<path d="M589.316 599.006C587.195 599.003 585.162 598.16 583.662 596.66C582.162 595.16 581.318 593.127 581.316 591.006V366.006C581.316 364.493 581.745 363.011 582.553 361.732C583.361 360.454 584.515 359.43 585.881 358.781C587.248 358.131 588.77 357.882 590.272 358.063C591.774 358.244 593.194 358.847 594.367 359.802L593.103 361.352C592.223 360.636 591.158 360.184 590.032 360.049C588.906 359.913 587.764 360.1 586.739 360.587C585.715 361.074 584.849 361.842 584.243 362.801C583.637 363.76 583.316 364.871 583.316 366.006V591.006C583.318 592.596 583.95 594.122 585.075 595.246C586.2 596.371 587.725 597.004 589.316 597.006V599.006Z" fill="#3F3D56"/>
<path d="M574.194 473.345C574.625 472.999 574.133 471.672 573.095 470.38C572.058 469.088 570.868 468.321 570.437 468.667C570.007 469.013 570.499 470.34 571.536 471.632C572.574 472.924 573.764 473.691 574.194 473.345Z" fill="#3182CE"/>
<path d="M488.514 641.138C478.683 656.214 481.377 675.389 481.377 675.389C481.377 675.389 500.01 670.121 509.841 655.044C519.672 639.968 516.978 620.793 516.978 620.793C516.978 620.793 498.345 626.062 488.514 641.138Z" fill="#3F3D56"/>
<path d="M495.899 643.803C495.122 661.785 481.774 675.812 481.774 675.812C481.774 675.812 469.686 660.686 470.463 642.704C471.24 624.722 484.588 610.695 484.588 610.695C484.588 610.695 496.676 625.822 495.899 643.803Z" fill="#3182CE"/>
<path d="M326.725 646.841C331.425 664.215 347.524 674.975 347.524 674.975C347.524 674.975 356.002 657.566 351.302 640.192C346.602 622.819 330.504 612.058 330.504 612.058C330.504 612.058 322.025 629.467 326.725 646.841Z" fill="#3F3D56"/>
<path d="M333.632 643.107C346.528 655.661 348.104 674.961 348.104 674.961C348.104 674.961 328.769 673.905 315.872 661.35C302.976 648.796 301.4 629.497 301.4 629.497C301.4 629.497 320.735 630.552 333.632 643.107Z" fill="#3182CE"/>
<path d="M290.886 172.047C289.765 190.01 276.151 203.779 276.151 203.779C276.151 203.779 264.354 188.424 265.476 170.461C266.597 152.497 280.211 138.728 280.211 138.728C280.211 138.728 292.007 154.083 290.886 172.047Z" fill="#3182CE"/>
<path d="M148.97 58.4851C164.195 68.0839 169.748 86.6339 169.748 86.6339C169.748 86.6339 150.617 89.621 135.392 80.0222C120.167 70.4233 114.613 51.8734 114.613 51.8734C114.613 51.8734 133.745 48.8862 148.97 58.4851Z" fill="#3182CE"/>
<path d="M114.97 277.485C130.195 287.084 135.748 305.634 135.748 305.634C135.748 305.634 116.617 308.621 101.392 299.022C86.1666 289.423 80.6133 270.873 80.6133 270.873C80.6133 270.873 99.7449 267.886 114.97 277.485Z" fill="#3182CE"/>
<path d="M424.49 90.5011C419.898 107.904 403.867 118.764 403.867 118.764C403.867 118.764 395.281 101.409 399.872 84.0061C404.463 66.6032 420.494 55.7429 420.494 55.7429C420.494 55.7429 429.081 73.0982 424.49 90.5011Z" fill="#3182CE"/>
<path d="M569.325 104.071C563.929 121.241 547.409 131.343 547.409 131.343C547.409 131.343 539.64 113.607 545.036 96.4367C550.433 79.2664 566.952 69.1641 566.952 69.1641C566.952 69.1641 574.722 86.9002 569.325 104.071Z" fill="#3182CE"/>
<path d="M725.87 295.168C716.094 310.28 697.481 315.617 697.481 315.617C697.481 315.617 694.717 296.452 704.492 281.34C714.268 266.227 732.881 260.89 732.881 260.89C732.881 260.89 735.645 280.055 725.87 295.168Z" fill="#3182CE"/>
</g>
<defs>
<clipPath id="clip0">
<rect width="855.316" height="676.006" fill="white"/>
</clipPath>
</defs>
</svg>
